<?xml version="1.0" standalone="no"?>
<!DOCTYPE svg PUBLIC "-//W3C//DTD SVG 20010904//EN"
 "http://www.w3.org/TR/2001/REC-SVG-20010904/DTD/svg10.dtd">
<svg version="1.0" xmlns="http://www.w3.org/2000/svg"
 width="800.000000pt" height="800.000000pt" viewBox="0 0 800.000000 800.000000"
 preserveAspectRatio="xMidYMid meet">

<g transform="translate(0.000000,800.000000) scale(0.100000,-0.100000)"
fill="#d60b76" stroke="none">
<path d="M4017 7624 c-1 -2 -47 -4 -102 -5 -146 -3 -365 -28 -525 -60 -194
-38 -491 -123 -625 -179 -16 -7 -39 -16 -50 -21 -11 -4 -41 -17 -67 -28 -26
-12 -50 -21 -53 -21 -17 0 -245 -121 -381 -202 -246 -146 -456 -308 -668 -516
-349 -343 -615 -732 -799 -1169 -287 -680 -358 -1452 -201 -2183 183 -851 674
-1609 1383 -2133 274 -203 566 -359 916 -490 264 -99 630 -179 945 -206 147
-13 540 -5 695 13 449 54 926 203 1290 403 151 83 184 102 278 166 553 367
984 857 1267 1441 231 477 344 945 357 1486 9 365 -21 636 -107 987 -125 505
-380 1007 -721 1418 -154 184 -390 411 -574 551 -537 408 -1157 656 -1820 729
-98 11 -431 25 -438 19z m-163 -1386 c4 -43 50 -1148 58 -1408 l2 -65 -247 -3
c-229 -2 -247 -4 -247 -20 0 -10 9 -68 21 -130 65 -360 201 -692 408 -997 153
-225 462 -575 507 -575 10 0 93 74 185 165 162 161 167 165 209 165 46 0 47
-1 260 -226 85 -90 142 -149 508 -531 251 -261 247 -256 247 -311 0 -43 -2
-46 -150 -190 -211 -207 -284 -259 -440 -315 -169 -60 -441 -76 -635 -37 -484
98 -999 543 -1496 1291 -57 86 -104 159 -104 161 0 3 -23 45 -52 94 -222 384
-402 929 -484 1469 -15 93 -19 177 -19 375 1 225 3 266 22 346 45 193 127 351
248 482 147 158 302 250 487 287 107 21 117 22 425 23 l282 2 5 -52z"/>
</g>
</svg>
